<svg xmlns="http://www.w3.org/2000/svg" xmlns:xlink="http://www.w3.org/1999/xlink" viewBox="-11287 -5942 130.862 37.223">
  <defs>
    <style>
      .cls-1 {
        fill: #fff;
      }

      .cls-2 {
        clip-path: url(#clip-path);
      }
    </style>
    <clipPath id="clip-path">
      <path id="Path_2" data-name="Path 2" class="cls-1" d="M0-28.2H130.863V-65.419H0Z" transform="translate(0 65.419)"/>
    </clipPath>
  </defs>
  <g id="Group_54" data-name="Group 54" transform="translate(-11287 -5942)">
    <g id="Group_15" data-name="Group 15" class="cls-2" transform="translate(0 0)">
      <g id="Group_14" data-name="Group 14" transform="translate(0 0)">
        <path id="Path_1" data-name="Path 1" class="cls-1" d="M-17-4.011A13.273,13.273,0,0,0-25.8-8.54l-3.675,5.273h1.518a8.058,8.058,0,0,1,5.94,2.479A8.2,8.2,0,0,1-19.565,5.2V17.552a4.494,4.494,0,0,1-1.577,3.335,5.27,5.27,0,0,1-3.74,1.487h-4.957l3.7,5.227a10.961,10.961,0,0,0,2.884.315,9.609,9.609,0,0,0,6.985-2.884,9.139,9.139,0,0,0,2.929-6.714V5.43A13.618,13.618,0,0,0-17-4.011M-35.7,5.578v14.26a2.628,2.628,0,0,1-1.172,2.212,4.257,4.257,0,0,1-2.569.858l3.47,5.009a7.063,7.063,0,0,0,4.619-2.595,7.876,7.876,0,0,0,1.87-5.212V-3.358ZM13.917-.383,7.7-9.261V27.691h6.219ZM-2.216,8.4V-.451l-6.218-8.81V27.691h6.218V13.812H3.974L7.7,8.4Zm32.265,13.97V-.429L23.831-9.306v37H39.6l3.74-5.317Zm36.1-.385a2.673,2.673,0,0,1-1.262-2.246V9.774a7.553,7.553,0,0,0-2.351-5.591A7.771,7.771,0,0,0,56.88,1.87a8.506,8.506,0,0,0-1.853.223L51.274,7.368h1.95q3.9,0,5.08,2.493L51.139,14.8h7.525v5.684A7.1,7.1,0,0,0,60.579,25.3a7.251,7.251,0,0,0,4.574,2.529l3.56-5.03a4.288,4.288,0,0,1-2.568-.808M56.1,22.284a4.752,4.752,0,0,1-3.4-1.356,4.371,4.371,0,0,1-1.419-3.281V14.8l-1.938,1.329a6.258,6.258,0,0,0-3.065,5.36,5.715,5.715,0,0,0,2.434,4.962,8.97,8.97,0,0,0,5.273,1.373,4.694,4.694,0,0,0,1.261-.225l3.785-5.318ZM88.946,4.321A8.16,8.16,0,0,0,83,1.87a5.605,5.605,0,0,0-1.442.18L77.771,7.413h2.613a4.84,4.84,0,0,1,4.822,4.808V22.509l6.218-8.859V10.234a8.014,8.014,0,0,0-2.478-5.913M82.624,22.374a4.667,4.667,0,0,1-3.384-1.4,4.558,4.558,0,0,1-1.424-3.38V-.429L71.6-9.306V19.535a8.084,8.084,0,0,0,2.463,5.9,7.978,7.978,0,0,0,5.865,2.478,9.223,9.223,0,0,0,1.566-.18l3.716-5.362Z" transform="translate(39.438 9.306)"/>
      </g>
    </g>
  </g>
</svg>
