<svg xmlns="http://www.w3.org/2000/svg" viewBox="-11280 -6060 110.992 47.904">
  <defs>
    <style>
      .cls-1 {
        fill: #fff;
      }
    </style>
  </defs>
  <g id="Group_425" data-name="Group 425" transform="translate(-11280 -6060)">
    <path id="Path_721" data-name="Path 721" class="cls-1" d="M36.873,10.039,25.595,29.065V41.893c1.3,3.1,4.586,3.47,7.747,3.656v1.8H11.217v-1.8c3.161-.124,7-.62,7.994-2.665V29.623L7.747,10.225C5.763,6.941,3.842,5.825,0,5.516V3.78H19.211v1.8c-3.656.186-4.772.868-5.825,1.735L24.045,25.78,34.519,7.375c-1.116-.806-2.541-1.549-6.135-1.8V3.78H44.806v1.8C41.15,5.7,38.795,6.941,36.873,10.039ZM59.369,47.9c-3.718,0-5.454-2.541-5.639-4.338C51.375,46.045,48.4,47.9,45.488,47.9c-3.718,0-6.817-2.231-6.817-6.135A10.845,10.845,0,0,1,40.1,36.316L53.73,31.358V26.276c0-3.1-1.425-6.011-4.524-6.011-1.859,0-3.656,2.231-3.78,5.763L39.29,27.082V26.4c2.045-6.135,8.862-8.552,12.147-8.552,6.259,0,8.49,3.285,8.428,8.366l-.186,14.378c-.062,2.789,1.425,3.47,2.789,3.47,1.116,0,2.169-.682,3.47-1.983V44C64.451,45.8,61.724,47.9,59.369,47.9ZM45.674,36.75a14.259,14.259,0,0,0-.5,3.532c0,2.045,1.177,4.09,3.408,4.09,2.045,0,3.223-.682,5.082-2.107l.062-9.234C51.933,33.9,47.595,35.82,45.674,36.75ZM66.558,47.285V45.735c3.1-.186,3.966-.868,4.524-2.045V8.242c0-2.355-.372-3.285-5.082-3.718V3.161L78.519,0l.434,1.177L76.969,3.656V43.69c.682,1.363,1.983,1.859,4.772,2.045v1.549Zm31.606.558c-7.189,0-12.7-5.7-12.7-13.634,0-9.73,5.949-16.361,14.378-16.361,6.755,0,10.535,3.842,10.535,9.916V29L91.9,28.879a24.03,24.03,0,0,0-.186,3.47c0,7,4.4,11.589,10.225,11.589,3.47,0,5.268-1.239,7.994-3.532l1.054,1.549C107.026,45.55,103.8,47.843,98.164,47.843Zm.62-27.826c-3.408,0-5.825,2.727-6.631,7.065l12.023-.124C104.175,23.3,101.944,20.017,98.784,20.017Z"/>
  </g>
</svg>
