<svg xmlns="http://www.w3.org/2000/svg" xmlns:xlink="http://www.w3.org/1999/xlink" viewBox="-22898 -7062 150 64">
  <defs>
    <style>
      .cls-1 {
        fill: #fff;
      }

      .cls-2 {
        fill: #FFB600;
      }

      .cls-3 {
        clip-path: url(#clip-path);
      }
    </style>
    <clipPath id="clip-path">
      <path id="Path_2" data-name="Path 2" class="cls-1" d="M0-34.4H109.052V-65.419H0Z" transform="translate(0 65.419)"/>
    </clipPath>
  </defs>
  <g id="Group_327" data-name="Group 327" transform="translate(-22938 -7062)">
    <rect id="Rectangle_103" data-name="Rectangle 103" class="cls-2" width="150" height="64" transform="translate(40)"/>
    <g id="Group_54" data-name="Group 54" transform="translate(60.283 16)">
      <g id="Group_15" data-name="Group 15" class="cls-3" transform="translate(0 0)">
        <g id="Group_14" data-name="Group 14" transform="translate(0 0)">
          <path id="Path_1" data-name="Path 1" class="cls-1" d="M-20.738-4.894a11.061,11.061,0,0,0-7.338-3.774l-3.063,4.394h1.265a6.715,6.715,0,0,1,4.95,2.065,6.835,6.835,0,0,1,2.047,4.994v10.29a3.745,3.745,0,0,1-1.314,2.779,4.391,4.391,0,0,1-3.117,1.239h-4.131l3.079,4.356a9.134,9.134,0,0,0,2.4.263,8.008,8.008,0,0,0,5.821-2.4,7.616,7.616,0,0,0,2.441-5.6V2.974a11.348,11.348,0,0,0-3.044-7.867M-36.321,3.1V14.981a2.19,2.19,0,0,1-.976,1.843,3.548,3.548,0,0,1-2.141.715l2.892,4.174A5.886,5.886,0,0,0-32.7,19.551a6.563,6.563,0,0,0,1.558-4.344V-4.349ZM5.024-1.87l-5.182-7.4V21.525H5.024ZM-8.42,5.453V-1.927L-13.6-9.269V21.525H-8.42V9.959h5.159l3.1-4.506ZM18.468,17.094v-19l-5.182-7.4V21.525H26.43l3.117-4.431Zm30.08-.321A2.228,2.228,0,0,1,47.5,14.9V6.594a6.294,6.294,0,0,0-1.959-4.659A6.476,6.476,0,0,0,40.827.007a7.088,7.088,0,0,0-1.544.186l-3.127,4.4H37.78q3.25,0,4.233,2.078l-5.971,4.119h6.271v4.736a5.918,5.918,0,0,0,1.6,4.009,6.043,6.043,0,0,0,3.812,2.107l2.967-4.192a3.574,3.574,0,0,1-2.14-.673m-8.374.246a3.96,3.96,0,0,1-2.835-1.13,3.643,3.643,0,0,1-1.183-2.734V10.785l-1.615,1.107a5.215,5.215,0,0,0-2.554,4.467,4.763,4.763,0,0,0,2.028,4.135,7.475,7.475,0,0,0,4.394,1.144,3.911,3.911,0,0,0,1.051-.188l3.155-4.431ZM67.549,2.05A6.8,6.8,0,0,0,62.592.007a4.671,4.671,0,0,0-1.2.15L58.236,4.626h2.178a4.034,4.034,0,0,1,4.018,4.007v8.574l5.182-7.382V6.977A6.678,6.678,0,0,0,67.549,2.05M62.28,17.094a3.889,3.889,0,0,1-2.82-1.165,3.8,3.8,0,0,1-1.187-2.816V-1.908l-5.183-7.4V14.728a6.737,6.737,0,0,0,2.052,4.919,6.649,6.649,0,0,0,4.887,2.065,7.685,7.685,0,0,0,1.305-.15l3.1-4.468Z" transform="translate(39.438 9.306)"/>
        </g>
      </g>
    </g>
  </g>
</svg>
