<svg xmlns="http://www.w3.org/2000/svg" viewBox="2897 750 40.015 40.015">
  <defs>
    <style>
      .cls-1 {
        fill: #fff;
      }

      .cls-2 {
        fill: #051d38;
      }
    </style>
  </defs>
  <g id="Group_406" data-name="Group 406" transform="translate(2841 -2861)">
    <circle id="Ellipse_64" data-name="Ellipse 64" class="cls-1" cx="20.008" cy="20.008" r="20.008" transform="translate(56 3611)"/>
    <path id="Path_707" data-name="Path 707" class="cls-2" d="M19.752,17.067l-.141-.282c-.282-.846-4.512-1.974-4.794-2.115h-.282c-.564.141-1.128.7-2.538,1.833a13.949,13.949,0,0,1-4.512-3.525,18.664,18.664,0,0,1-2.82-4.512c1.551-1.41,2.115-1.974,2.256-2.679,0-.282-.7-4.653-1.41-5.076H5.23a2.639,2.639,0,0,0-1.974-.7c-.282.141-.423.141-.564.282a6.62,6.62,0,0,0-2.538,2.4c-.423.7-.564,7.613,4.512,13.394C9.742,21.72,15.945,22,16.932,21.861h.141a6.287,6.287,0,0,0,2.679-2.115A2.308,2.308,0,0,0,19.752,17.067Z" transform="translate(66.037 3619.912)"/>
  </g>
</svg>
