<svg xmlns="http://www.w3.org/2000/svg" viewBox="2959.246 750 40.015 40.015">
  <defs>
    <style>
      .cls-1 {
        fill: #fff;
      }

      .cls-2 {
        fill: #051d38;
      }
    </style>
  </defs>
  <g id="Group_404" data-name="Group 404" transform="translate(2841 -2861)">
    <circle id="Ellipse_65" data-name="Ellipse 65" class="cls-1" cx="20.008" cy="20.008" r="20.008" transform="translate(118.246 3611)"/>
    <g id="Group_390" data-name="Group 390" transform="translate(126.451 3623.909)">
      <path id="Path_661" data-name="Path 661" class="cls-2" d="M21.823,0H.9L11.361,9.283Z" transform="translate(0.426)"/>
      <path id="Path_662" data-name="Path 662" class="cls-2" d="M18.267.7,10.9,7.33l7.367,6.483c0-.442.147-.589.147-.884V1.142A.541.541,0,0,0,18.267.7Z" transform="translate(5.16 0.331)"/>
      <path id="Path_663" data-name="Path 663" class="cls-2" d="M.147.6A.886.886,0,0,0,0,1.189V12.977a.886.886,0,0,0,.147.589L7.515,7.23Z" transform="translate(0 0.284)"/>
      <path id="Path_664" data-name="Path 664" class="cls-2" d="M11.361,8.6,8.267,5.8.9,11.988H21.676L14.456,5.8Z" transform="translate(0.426 2.746)"/>
    </g>
  </g>
</svg>
