<svg xmlns="http://www.w3.org/2000/svg" xmlns:xlink="http://www.w3.org/1999/xlink" viewBox="3146 750 40.015 40.015">
  <defs>
    <style>
      .cls-1 {
        fill: #051d38;
      }

      .cls-2 {
        fill: #fff;
      }

      .cls-3 {
        clip-path: url(#clip-path);
      }

      .cls-4 {
        clip-path: url(#clip-path-2);
      }
    </style>
    <clipPath id="clip-path">
      <rect id="Rectangle_1114" data-name="Rectangle 1114" class="cls-1" width="19.931" height="19.931"/>
    </clipPath>
    <clipPath id="clip-path-2">
      <rect id="Rectangle_1115" data-name="Rectangle 1115" width="19.931" height="19.931"/>
    </clipPath>
  </defs>
  <g id="Group_405" data-name="Group 405" transform="translate(2841 -2861)">
    <circle id="Ellipse_68" data-name="Ellipse 68" class="cls-2" cx="20.008" cy="20.008" r="20.008" transform="translate(305 3611)"/>
    <g id="Group_401" data-name="Group 401" transform="translate(315 3621)">
      <g id="Group_396" data-name="Group 396" class="cls-3">
        <path id="Path_710" data-name="Path 710" class="cls-1" d="M9.963,1.8c2.66,0,2.975.009,4.027.057a5.438,5.438,0,0,1,1.852.345,3.079,3.079,0,0,1,1.144.747,3.134,3.134,0,0,1,.747,1.144,5.614,5.614,0,0,1,.345,1.852c.048,1.053.057,1.367.057,4.027s-.009,2.975-.057,4.027a5.438,5.438,0,0,1-.345,1.852,3.079,3.079,0,0,1-.747,1.144,3.134,3.134,0,0,1-1.144.747,5.613,5.613,0,0,1-1.852.345c-1.053.048-1.367.057-4.027.057s-2.975-.009-4.027-.057a5.438,5.438,0,0,1-1.852-.345,3.079,3.079,0,0,1-1.144-.747,3.134,3.134,0,0,1-.747-1.144,5.614,5.614,0,0,1-.345-1.852c-.048-1.053-.057-1.367-.057-4.027S1.8,6.993,1.848,5.94a5.438,5.438,0,0,1,.345-1.852A3.079,3.079,0,0,1,2.94,2.944,3.134,3.134,0,0,1,4.084,2.2a5.614,5.614,0,0,1,1.852-.345C6.989,1.8,7.3,1.8,9.963,1.8m0-1.8C7.255,0,6.919.013,5.853.061a7.35,7.35,0,0,0-2.42.463A4.862,4.862,0,0,0,1.669,1.673,4.906,4.906,0,0,0,.524,3.438a7.35,7.35,0,0,0-.463,2.42C.013,6.919,0,7.259,0,9.963s.013,3.044.061,4.11a7.35,7.35,0,0,0,.463,2.42,4.862,4.862,0,0,0,1.149,1.765,4.862,4.862,0,0,0,1.765,1.149,7.35,7.35,0,0,0,2.42.463c1.061.048,1.4.061,4.11.061s3.044-.013,4.11-.061a7.35,7.35,0,0,0,2.42-.463,5.09,5.09,0,0,0,2.913-2.913,7.35,7.35,0,0,0,.463-2.42c.048-1.061.061-1.4.061-4.11s-.013-3.044-.061-4.11a7.35,7.35,0,0,0-.463-2.42,4.862,4.862,0,0,0-1.149-1.765A4.862,4.862,0,0,0,16.5.52a7.35,7.35,0,0,0-2.42-.463C13.012.013,12.671,0,9.963,0" transform="translate(0)"/>
      </g>
      <g id="Group_397" data-name="Group 397" class="cls-4">
        <path id="Path_711" data-name="Path 711" class="cls-1" d="M116.115,111a5.117,5.117,0,1,0,5.124,5.115A5.113,5.113,0,0,0,116.115,111m0,8.439a3.32,3.32,0,1,1,3.32-3.32,3.318,3.318,0,0,1-3.32,3.32" transform="translate(-106.152 -106.152)"/>
      </g>
      <g id="Group_398" data-name="Group 398" class="cls-4">
        <path id="Path_712" data-name="Path 712" class="cls-1" d="M324.894,80.2a1.2,1.2,0,1,1-1.2-1.2,1.2,1.2,0,0,1,1.2,1.2" transform="translate(-308.414 -75.549)"/>
      </g>
    </g>
  </g>
</svg>
