<svg xmlns="http://www.w3.org/2000/svg" viewBox="-5942 102 15 15">
  <defs>
    <style>
      .cls-1 {
        fill: #9f9f9f;
      }
    </style>
  </defs>
  <g id="Group_383" data-name="Group 383" transform="translate(-5942 102)">
    <path id="Path_704" data-name="Path 704" class="cls-1" d="M14.107,1.611l-.7-.7a2.89,2.89,0,0,0-4.2,0L7.1,3.02a3.2,3.2,0,0,1,2.7.2l.9-.906a.964.964,0,0,1,1.4,0l.6.7a.977.977,0,0,1,0,1.409L8.5,8.758a1.357,1.357,0,0,1-1.5,0l-.5-.6L5,9.463l.6.6a2.89,2.89,0,0,0,4.2,0l4.2-4.228A2.851,2.851,0,0,0,14.107,1.611Z" transform="translate(0.004)"/>
    <path id="Path_705" data-name="Path 705" class="cls-1" d="M5.3,11.852l-.9.906a1.2,1.2,0,0,1-1.4,0l-.7-.7a.977.977,0,0,1,0-1.409l4.2-4.228a.964.964,0,0,1,1.4,0l.6.6,1.5-1.51-.6-.6a2.89,2.89,0,0,0-4.2,0L.9,9.134a2.931,2.931,0,0,0,0,4.228l.7.7a2.89,2.89,0,0,0,4.2,0l2.1-2.013A2.977,2.977,0,0,1,5.3,11.852Z" transform="translate(0 0.027)"/>
  </g>
</svg>
