<svg xmlns="http://www.w3.org/2000/svg" viewBox="-5827 104 16 10.97">
  <defs>
    <style>
      .cls-1 {
        fill: #9f9f9f;
      }
    </style>
  </defs>
  <path id="Twitter__x28_alt_x29__1_" class="cls-1" d="M14.2,4.9a1.947,1.947,0,0,0,1.7-1,2.888,2.888,0,0,1-1.9.2V3.7A3.493,3.493,0,0,0,10.6,1c.1,0,.2-.1.4-.1.2-.1,1.1-.2,1-.6-.1-.3-1.3.2-1.6.3.3-.1.8-.3.8-.6A3.1,3.1,0,0,0,9.9.6a.764.764,0,0,0,.2-.5C9,.9,8.3,2.5,7.7,4A3.543,3.543,0,0,0,6.5,3,36.584,36.584,0,0,0,2.4,1.2a2.051,2.051,0,0,0,1.4,2,4.142,4.142,0,0,0-1,.1c.1.7.6,1.3,1.8,1.6-.6.1-.9.2-1.1.5a2,2,0,0,0,2,1c-1.3.5-.6,1.4.4,1.3A4.228,4.228,0,0,1,0,7.8c4,5.5,12.8,3.2,14.1-2A2.256,2.256,0,0,0,16,5.1,3.459,3.459,0,0,1,14.2,4.9Z" transform="translate(-5827 104)"/>
</svg>
