<svg xmlns="http://www.w3.org/2000/svg" viewBox="-5782 102 16 13.3">
  <defs>
    <style>
      .cls-1 {
        fill: #333;
      }
    </style>
  </defs>
  <path id="reddit_1_" class="cls-1" d="M11.4,7.3c0,.1.1.2.1.3a1.421,1.421,0,0,1-.2.6,1,1,0,0,1-.5.4h-.3a1.072,1.072,0,0,1-.6-.2c-.2-.2-.4-.4-.4-.6h0V7.6A1.421,1.421,0,0,1,9.7,7a1,1,0,0,1,.5-.4h0c.1,0,.2-.1.3-.1a1.421,1.421,0,0,1,.6.2c.1.2.3.3.3.6Zm-.6,2.5a.367.367,0,0,0-.3-.1c-.1,0-.2,0-.2.1h0a4.815,4.815,0,0,1-2.4.7,3.922,3.922,0,0,1-1.8-.4h0c-.1-.1-.2-.1-.3-.2-.1,0-.1-.1-.2-.1H5.2L5,10v.3a.367.367,0,0,0,.1.3c0,.1.1.1.2.2a5.593,5.593,0,0,0,2.6.7,5.734,5.734,0,0,0,2.5-.6h0c.1-.1.2-.1.4-.2.1,0,.1-.1.2-.1.1-.1.1-.1.1-.2h0v-.3ZM5.2,8.5h0c.1,0,.2.1.3.1a.908.908,0,0,0,.7-.3.908.908,0,0,0,.3-.7h0a.908.908,0,0,0-.3-.7.908.908,0,0,0-.7-.3H5.3a.988.988,0,0,0-.7.7h0v.3a1.421,1.421,0,0,0,.2.6.446.446,0,0,0,.4.3ZM16,6h0v.1a2.016,2.016,0,0,1-.3,1.1,2.7,2.7,0,0,1-.8.7v.5a3.775,3.775,0,0,1-.8,2.3h0A6.585,6.585,0,0,1,10.3,13h0a9.863,9.863,0,0,1-2.4.3,8.424,8.424,0,0,1-3.5-.7h0a6.488,6.488,0,0,1-2.9-2.3,3.606,3.606,0,0,1-.6-2V7.8c-.1,0-.4-.3-.5-.6a1.284,1.284,0,0,1-.4-1H0A1.974,1.974,0,0,1,.6,4.8,1.816,1.816,0,0,1,2,4.2h.2a2.2,2.2,0,0,1,.8.1H3a2.092,2.092,0,0,1,.6.4c.1,0,.1-.1.2-.1a8.61,8.61,0,0,1,3.8-1A4.333,4.333,0,0,1,8,1.7,1.887,1.887,0,0,1,9.3.7h0c.2,0,.4-.1.6-.1a4.146,4.146,0,0,1,1.6.3,3.45,3.45,0,0,1,.9-.8h0a1.7,1.7,0,0,1,.7-.1.952.952,0,0,1,.7.2h0a1.779,1.779,0,0,1,.8.7,1.929,1.929,0,0,1,.3,1v.2h0a1.743,1.743,0,0,1-.6,1.2,1.845,1.845,0,0,1-1.2.5h-.2a1.743,1.743,0,0,1-1.2-.6A1.845,1.845,0,0,1,11.2,2V1.9a3.079,3.079,0,0,0-1.3-.3H9.7a.632.632,0,0,0-.8.4h0a4.013,4.013,0,0,0-.3,1.5,9.254,9.254,0,0,1,3.7,1h0a.1.1,0,0,1,.1.1c.1-.1.2-.1.3-.2a2.375,2.375,0,0,1,1.2-.3.749.749,0,0,1,.5.1h0a1.9,1.9,0,0,1,1.1.7A1.606,1.606,0,0,1,16,6ZM12.2,1.8h0a.6.6,0,0,0,.3.6.735.735,0,0,0,.6.2h0a1.421,1.421,0,0,0,.6-.2.55.55,0,0,0,.3-.5h0V1.8a.713.713,0,0,0-.3-.6.864.864,0,0,0-.6-.3h-.2a.85.85,0,0,0-.5.3A1.421,1.421,0,0,0,12.2,1.8ZM2.7,5.3a1.689,1.689,0,0,0-.5-.2H2.1a.908.908,0,0,0-.7.3,1.012,1.012,0,0,0-.4.7H1v.1a.9.9,0,0,0,.1.5c.1.1.1.2.2.3A6.065,6.065,0,0,1,2.7,5.3ZM13.9,8.4a2.767,2.767,0,0,0-.5-1.6,6.1,6.1,0,0,0-2.8-1.9h0c-.2-.1-.4-.1-.6-.2a13.552,13.552,0,0,0-2-.2,7.834,7.834,0,0,0-2.6.4A6.1,6.1,0,0,0,2.6,6.8h0a3.022,3.022,0,0,0-.5,1.6,1.268,1.268,0,0,0,.1.6h0a2.4,2.4,0,0,0,.7,1.2,3.126,3.126,0,0,0,1.1.9c.1.1.2.1.3.2a6.863,6.863,0,0,0,3.7,1h.7A7.531,7.531,0,0,0,12.5,11h0a7.637,7.637,0,0,0,.9-.9,2.567,2.567,0,0,0,.5-1.2h0ZM15,6.1a.6.6,0,0,0-.1-.4h0a.781.781,0,0,0-.4-.4,1.421,1.421,0,0,0-.6-.2.749.749,0,0,0-.5.1,5.5,5.5,0,0,1,1.3,1.7c.1-.1.2-.2.2-.3A4.331,4.331,0,0,0,15,6.1Z" transform="translate(-5782 102)"/>
</svg>
