<svg xmlns="http://www.w3.org/2000/svg" width="15.239" height="13.49" viewBox="0 0 15.239 13.49">
  <path id="Path_2598" data-name="Path 2598" d="M651.123,3755.375l-7.008-12.264a.523.523,0,0,0-.992,0l-7.008,12.264c-.271.478-.045.869.5.869h14C651.17,3756.244,651.4,3755.853,651.123,3755.375Zm-6.5-1.631a.5.5,0,0,1-.5.5h-1a.5.5,0,0,1-.5-.5v-1a.5.5,0,0,1,.5-.5h1a.5.5,0,0,1,.5.5Zm0-3a.5.5,0,0,1-.5.5h-1a.5.5,0,0,1-.5-.5v-3a.5.5,0,0,1,.5-.5h1a.5.5,0,0,1,.5.5Z" transform="translate(-636 -3742.754)" fill="#1a1818"/>
</svg>
