<svg xmlns="http://www.w3.org/2000/svg" viewBox="-9226 -12752 14.715 14.315">
  <defs>
    <style>
      .cls-1 {
        fill: #9f9f9f;
        fill-rule: evenodd;
      }
    </style>
  </defs>
  <path id="Path_720" data-name="Path 720" class="cls-1" d="M7.335,0a7.348,7.348,0,0,0-2.34,14.31c.36.045.495-.18.495-.36V12.69c-2.025.45-2.475-.99-2.475-.99a1.858,1.858,0,0,0-.81-1.08c-.675-.45.045-.45.045-.45a1.568,1.568,0,0,1,1.125.765,1.558,1.558,0,0,0,2.115.63,1.567,1.567,0,0,1,.45-.99c-1.62-.18-3.33-.81-3.33-3.645a2.79,2.79,0,0,1,.765-1.98,2.665,2.665,0,0,1,.09-1.89s.63-.18,2.025.765A6.288,6.288,0,0,1,7.335,3.6a8.282,8.282,0,0,1,1.845.225C10.575,2.88,11.2,3.06,11.2,3.06a2.818,2.818,0,0,1,.09,1.935,2.911,2.911,0,0,1,.765,1.98c0,2.835-1.71,3.42-3.33,3.6a1.719,1.719,0,0,1,.495,1.35V13.95c0,.18.135.4.495.36A7.348,7.348,0,0,0,7.335,0Z" transform="translate(-9226 -12752)"/>
</svg>
