<svg xmlns="http://www.w3.org/2000/svg" viewBox="-6779.475 -12751.35 19.931 13.665">
  <defs>
    <style>
      .cls-1 {
        fill: #9f9f9f;
      }
    </style>
  </defs>
  <path id="Twitter__x28_alt_x29__1_" class="cls-1" d="M17.689,6.1a2.426,2.426,0,0,0,2.118-1.246,3.6,3.6,0,0,1-2.367.249v-.5A4.351,4.351,0,0,0,13.2,1.246c.125,0,.249-.125.5-.125C13.952,1,15.073.872,14.948.374,14.824,0,13.329.623,12.955.747c.374-.125,1-.374,1-.747a3.861,3.861,0,0,0-1.619.747.952.952,0,0,0,.249-.623c-1.37,1-2.242,2.99-2.99,4.858A4.414,4.414,0,0,0,8.1,3.737,45.573,45.573,0,0,0,2.99,1.495,2.555,2.555,0,0,0,4.734,3.986a5.16,5.16,0,0,0-1.246.125c.125.872.747,1.619,2.242,1.993-.747.125-1.121.249-1.37.623A2.487,2.487,0,0,0,6.851,7.972c-1.619.623-.747,1.744.5,1.619A5.267,5.267,0,0,1,0,9.716C4.983,16.568,15.945,13.7,17.564,7.225a2.811,2.811,0,0,0,2.367-.872A4.308,4.308,0,0,1,17.689,6.1Z" transform="translate(-6779.475 -12751.35)"/>
</svg>
