<svg xmlns="http://www.w3.org/2000/svg" viewBox="-8072 -12750 13.665 13.665">
  <defs>
    <style>
      .cls-1 {
        fill: #eab755;
      }
    </style>
  </defs>
  <path id="Facebook__x28_alt_x29__1_" class="cls-1" d="M13.665,2.306A2.414,2.414,0,0,0,11.359,0H2.306A2.414,2.414,0,0,0,0,2.306v9.139a2.4,2.4,0,0,0,2.306,2.221H6.833V8.541H5.124V6.235H6.833V5.381a2.766,2.766,0,0,1,2.562-2.9h1.879V4.783H9.395a.582.582,0,0,0-.427.6V6.32h2.306V8.541H8.968v5.124h2.391a2.414,2.414,0,0,0,2.306-2.306Z" transform="translate(-8072 -12750)"/>
</svg>
