<svg xmlns="http://www.w3.org/2000/svg" viewBox="-6708.842 -12752 14.92 15">
  <defs>
    <style>
      .cls-1 {
        fill: #9f9f9f;
      }
    </style>
  </defs>
  <path id="Path_683" data-name="Path 683" class="cls-1" d="M14.763,12.776l-2.65-2.65a5.55,5.55,0,0,0,1.136-3.5A6.584,6.584,0,0,0,6.625,0,6.584,6.584,0,0,0,0,6.625a6.584,6.584,0,0,0,6.625,6.625,6.664,6.664,0,0,0,3.6-1.041l2.65,2.65a.457.457,0,0,0,.662,0l1.325-1.325A.714.714,0,0,0,14.763,12.776Zm-8.139-1.42A4.686,4.686,0,0,1,1.893,6.625,4.686,4.686,0,0,1,6.625,1.893a4.686,4.686,0,0,1,4.732,4.732A4.686,4.686,0,0,1,6.625,11.356Z" transform="translate(-6708.842 -12752)"/>
</svg>
