<svg xmlns="http://www.w3.org/2000/svg" viewBox="-3678 -151 13 13">
  <defs>
    <style>
      .cls-1 {
        fill: #9f9f9f;
      }
    </style>
  </defs>
  <path id="ShareThis_1_" class="cls-1" d="M4.55,6.5v.162L9.181,9.019a2.336,2.336,0,0,1,1.463-.569,2.275,2.275,0,1,1-2.275,2.275v-.163L3.737,8.206a2.336,2.336,0,0,1-1.463.569,2.275,2.275,0,0,1,0-4.55,2.336,2.336,0,0,1,1.462.569L8.45,2.438V2.275A2.271,2.271,0,0,1,10.725,0,2.325,2.325,0,0,1,13,2.275,2.271,2.271,0,0,1,10.725,4.55a2.336,2.336,0,0,1-1.463-.569L4.55,6.338Z" transform="translate(-3678 -151)"/>
</svg>
