<?xml version="1.0" encoding="utf-8"?>
<!-- Generator: Adobe Illustrator 22.0.1, SVG Export Plug-In . SVG Version: 6.00 Build 0)  -->
<svg version="1.1" id="Layer_1" xmlns="http://www.w3.org/2000/svg" xmlns:xlink="http://www.w3.org/1999/xlink" x="0px" y="0px"
	 viewBox="0 0 792 612" style="enable-background:new 0 0 792 612;" xml:space="preserve">
<style type="text/css">
	.st0{fill:none;}
	.st2{fill:#FFFFFF;}
</style>
<g>
	<path class="st2" d="M301.7,274.1v40.6c0,3.4-1.1,6.4-3.2,9c-2.2,2.6-4.8,4.1-8,4.5l-6-8.7c1.6,0,3.1-0.5,4.4-1.5
		c1.4-1,2-2.3,2-3.8v-24.7L301.7,274.1z M329.6,289.3v22.3c0,4.4-1.7,8.3-5.1,11.6c-3.4,3.3-7.4,5-12.1,5c-2,0-3.7-0.2-5-0.5l-6.4-9
		h8.6c2.5,0,4.7-0.9,6.5-2.6c1.8-1.7,2.7-3.6,2.7-5.8v-21.4c0-4.1-1.4-7.5-4.3-10.4c-2.8-2.9-6.3-4.3-10.3-4.3h-2.6l6.4-9.1
		c5.9,0.6,11,3.2,15.2,7.8C327.5,277.6,329.6,283,329.6,289.3z"/>
	<path class="st2" d="M366.8,294.4l-6.4,9.4h-10.7v24h-10.8v-64l10.8,15.2v15.3H366.8z M377.6,327.8h-10.8v-64l10.8,15.4V327.8z"/>
	<path class="st2" d="M420.7,318.6l-6.5,9.2H387v-64l10.8,15.4v39.5H420.7z"/>
	<path class="st2" d="M445.9,318.4l-6.6,9.2c-0.9,0.3-1.6,0.4-2.2,0.4c-3.8,0-6.9-0.8-9.1-2.4c-2.8-2-4.2-4.9-4.2-8.6
		c0-3.8,1.8-6.9,5.3-9.3l3.4-2.3v4.9c0,2.2,0.8,4.1,2.5,5.7c1.6,1.6,3.6,2.3,5.9,2.3H445.9z M462.7,319.3l-6.2,8.7
		c-3.1-0.4-5.7-1.9-7.9-4.4c-2.2-2.5-3.3-5.3-3.3-8.3v-9.8h-13l12.4-8.6c-1.4-2.9-4.3-4.3-8.8-4.3h-3.4l6.5-9.1
		c1.1-0.3,2.2-0.4,3.2-0.4c3.8,0,7.1,1.3,9.8,4s4.1,5.9,4.1,9.7v17.3c0,1.6,0.7,2.9,2.2,3.9C459.5,318.9,461,319.3,462.7,319.3z"/>
	<path class="st2" d="M489.3,318.6l-6.4,9.3c-1.1,0.2-2,0.3-2.7,0.3c-3.9,0-7.3-1.4-10.2-4.3c-2.8-2.9-4.3-6.3-4.3-10.2v-49.9
		l10.8,15.4v31.2c0,2.3,0.8,4.2,2.5,5.8c1.6,1.6,3.6,2.4,5.9,2.4H489.3z M500,297.6v5.9l-10.8,15.3V301c0-2.3-0.8-4.2-2.5-5.9
		c-1.6-1.6-3.6-2.4-5.9-2.4h-4.5l6.6-9.3c0.8-0.2,1.6-0.3,2.5-0.3c4,0,7.4,1.4,10.3,4.2C498.6,290.2,500,293.6,500,297.6z"/>
</g>
</svg>