<svg xmlns="http://www.w3.org/2000/svg" viewBox="-21438 -2797.039 303.234 52.039">
  <defs>
    <style>
      .cls-1 {
        fill: #fff;
      }
    </style>
  </defs>
  <g id="Group_122" data-name="Group 122" transform="translate(-21438 -2797.039)">
    <g id="Group_17" data-name="Group 17">
      <path id="Path_3" data-name="Path 3" class="cls-1" d="M16.273,4.46,11.316,12.8V18.42c.578,1.322,1.982,1.569,3.387,1.569v.743H4.956V19.99c1.4-.083,3.056-.248,3.552-1.156V13.051L3.387,4.46A3.587,3.587,0,0,0,0,2.478V1.652H8.508v.826c-1.652.083-2.148.33-2.561.743L10.656,11.4,15.281,3.3a4.874,4.874,0,0,0-2.726-.743V1.652h7.269v.826A3.616,3.616,0,0,0,16.273,4.46Zm9.83,16.6a2.336,2.336,0,0,1-2.478-1.9,5.275,5.275,0,0,1-3.634,1.9,2.714,2.714,0,0,1-2.974-2.726,4.738,4.738,0,0,1,.661-2.4l6.03-2.148v-2.23c0-1.322-.661-2.643-1.982-2.643-.826,0-1.569.991-1.652,2.561l-2.726.413v-.33a6.04,6.04,0,0,1,5.369-3.8c2.726,0,3.717,1.487,3.717,3.717l-.083,6.36c0,1.239.661,1.569,1.239,1.569a2.425,2.425,0,0,0,1.569-.909v.909A5.353,5.353,0,0,1,26.1,21.063Zm-6.03-4.873a7.819,7.819,0,0,0-.248,1.569,1.62,1.62,0,0,0,1.487,1.817,3.512,3.512,0,0,0,2.23-.909V14.62C22.881,14.951,20.981,15.777,20.072,16.19Zm9.251,4.626v-.661c1.322-.083,1.735-.413,1.982-.909V3.634c0-.991-.165-1.487-2.23-1.652V1.4L34.61,0l.165.5-.909,1.074V19.246c.33.578.909.826,2.148.909v.661H29.324Zm13.877.248c-3.139,0-5.617-2.478-5.617-6.03,0-4.3,2.643-7.186,6.36-7.186,2.974,0,4.626,1.652,4.626,4.378V12.8l-8.095-.083a8.066,8.066,0,0,0-.083,1.569c0,3.056,1.9,5.121,4.46,5.121,1.569,0,2.313-.578,3.552-1.569l.413.661C47.083,20.072,45.679,21.063,43.2,21.063Zm.33-12.225c-1.487,0-2.561,1.239-2.891,3.139l5.287-.083C45.927,10.243,44.853,8.838,43.531,8.838Z"/>
    </g>
    <g id="Group_18" data-name="Group 18" transform="translate(56.169 8.012)">
      <path id="Path_4" data-name="Path 4" class="cls-1" d="M83.79,10.578a2.429,2.429,0,0,0-1.9.909v6.2c0,3.634-2.313,5.2-5.369,5.2-3.139,0-5.121-1.735-5.121-4.791V11.322a2.269,2.269,0,0,0-1.9-.661V10h6.03v.578c-.909.083-1.735.33-1.9.661V17.6c0,2.561,1.239,3.965,3.552,3.965,2.4,0,3.552-1.487,3.552-4.3V14.791c0-1.074-.083-2.726-.083-3.3-.165-.413-1.322-.826-2.23-.909V10H83.79v.578Z" transform="translate(-68.261 -9.752)"/>
      <path id="Path_5" data-name="Path 5" class="cls-1" d="M103.6,10.578a2.429,2.429,0,0,0-1.9.909v7.6c0,1.074.083,2.891.165,3.717h-1.156l-7.765-9.5-.826-1.239.083,1.156v4.543c0,1.074.083,2.561.165,3.387.165.413,1.322.826,2.23.826v.578H88.983v-.578c.909-.083,1.817-.5,1.9-.826v-7.1c0-.991,0-1.982-.083-2.726a2.563,2.563,0,0,0-1.9-.826V10h3.965l1.074,1.4,6.443,7.847V14.708c0-1.074-.083-2.726-.083-3.387-.165-.413-1.322-.826-2.23-.909V10h5.369v.578Z" transform="translate(-71.636 -9.752)"/>
      <path id="Path_6" data-name="Path 6" class="cls-1" d="M115.078,22.555H108.8v-.578c.909-.083,1.9-.33,1.982-.661V11.239c-.165-.413-1.074-.661-1.982-.661V10h6.278v.578c-.909.083-1.9.33-1.982.661V21.316c.165.413,1.074.661,1.982.661Z" transform="translate(-75.099 -9.752)"/>
      <path id="Path_7" data-name="Path 7" class="cls-1" d="M132.125,10.578a2.449,2.449,0,0,0-2.065,1.074L125.517,22.8H124.03l-3.882-11.316c-.248-.578-1.239-.826-2.148-.909V10h6.443v.578c-.909.083-1.817.248-1.982.661l3.056,9,3.387-8.756c-.165-.5-1.156-.909-2.065-.909V10h5.287Z" transform="translate(-76.699 -9.752)"/>
      <path id="Path_8" data-name="Path 8" class="cls-1" d="M147.169,22.521H140.56l-4.46.083v-.578c.909-.083,2.23-.33,2.478-.991V11.122c-.165-.413-.991-.661-1.9-.661v-.5h8.178a3.421,3.421,0,0,0,1.156-.165h.5v3.3h-.578c-.083-1.735-.743-2.23-2.313-2.23h-2.891v4.708h2.726c1.322,0,1.9,0,2.065-1.487h.5v4.13h-.5c-.165-1.569-.578-1.569-2.065-1.569h-2.726v4.3c.083.248.165.578.5.661l3.139-.083c1.322,0,2.23-.578,2.23-2.313h.5v3.3Z" transform="translate(-79.848 -9.717)"/>
      <path id="Path_9" data-name="Path 9" class="cls-1" d="M166.19,22.621h-2.065c-1.9,0-2.065.165-3.221-1.322-1.4-1.817-2.065-2.891-2.726-3.8H156.2v3.469c.248.661,1.239.991,2.148.991v.578H151.9V21.96c.909-.083,1.817-.248,2.065-.909V11.3c-.165-.5-1.156-.661-2.065-.743V9.983c2.148,0,3.552-.083,5.865-.083,3.221,0,4.708,1.074,4.708,3.3a4.076,4.076,0,0,1-2.478,3.3l2.726,3.634a5,5,0,0,0,1.487,1.4,6.016,6.016,0,0,0,1.982.578Zm-8.673-11.895h-1.239v5.947h1.4c1.9,0,2.478-1.322,2.478-3.387A2.407,2.407,0,0,0,157.517,10.726Z" transform="translate(-82.597 -9.735)"/>
      <path id="Path_10" data-name="Path 10" class="cls-1" d="M174.947,22.834a9.917,9.917,0,0,1-3.717-.826l-.33-3.387h.578a5.142,5.142,0,0,0,1.487,2.478,4.871,4.871,0,0,0,2.313.909,2.306,2.306,0,0,0,2.561-2.148c0-1.487-.909-1.817-2.478-2.478-2.891-1.239-3.965-1.982-3.965-3.965,0-2.23,2.23-3.717,5.121-3.717a7.418,7.418,0,0,1,3.139.661v3.3h-.578a3.188,3.188,0,0,0-1.156-2.4,3.886,3.886,0,0,0-1.982-.661c-1.652,0-2.478.991-2.478,1.982,0,1.322.661,1.9,2.643,2.643,2.726,1.074,3.8,1.9,3.8,3.882C179.9,21.347,177.673,22.834,174.947,22.834Z" transform="translate(-85.903 -9.7)"/>
      <path id="Path_11" data-name="Path 11" class="cls-1" d="M190.378,22.555H184.1v-.578c.909-.083,1.9-.33,1.982-.661V11.239c-.165-.413-1.074-.661-1.982-.661V10h6.278v.578c-.909.083-1.9.33-1.982.661V21.316c.165.413,1.074.661,1.982.661Z" transform="translate(-88.199 -9.752)"/>
      <path id="Path_12" data-name="Path 12" class="cls-1" d="M206.308,13.6h-.5c-.083-1.652-.991-2.561-2.4-2.561h-2.148v9.912a2.419,2.419,0,0,0,2.4,1.074V22.6h-7.1v-.578c.909-.083,2.23-.248,2.478-.826V10.956h-2.148a2.245,2.245,0,0,0-2.313,2.561H194V9.8h.5a3.064,3.064,0,0,0,1.156.165h8.921a3.829,3.829,0,0,0,1.156-.165h.5v3.8Z" transform="translate(-89.922 -9.717)"/>
      <path id="Path_13" data-name="Path 13" class="cls-1" d="M223.816,10.578a2.8,2.8,0,0,0-2.313,1.487l-3.221,5.287v3.634c.413.909,1.4.991,2.313,1.074v.578h-6.773V22.06c.909-.083,2.065-.165,2.313-.743V17.434L212.913,11.9a2.48,2.48,0,0,0-2.313-1.322V10h6.03v.578a2.836,2.836,0,0,0-1.735.5l2.891,5.2,2.891-5.039a2.586,2.586,0,0,0-1.652-.661V10h4.708v.578Z" transform="translate(-92.81 -9.752)"/>
      <path id="Path_14" data-name="Path 14" class="cls-1" d="M244.821,22.555H234v-.578c.826-.083,1.982-.248,2.313-.909v-9.83c-.165-.413-.991-.661-1.9-.661V10h6.2v.578c-.909.083-1.9.33-2.065.661V21.564l3.552-.083c1.322-.083,2.23-1.322,2.23-2.974h.578v4.047Z" transform="translate(-96.881 -9.752)"/>
      <path id="Path_15" data-name="Path 15" class="cls-1" d="M255.578,22.555H249.3v-.578c.909-.083,1.9-.33,1.982-.661V11.239c-.165-.413-1.074-.661-1.982-.661V10h6.278v.578c-.909.083-1.9.33-1.982.661V21.316c.165.413,1.074.661,1.982.661Z" transform="translate(-99.543 -9.752)"/>
      <path id="Path_16" data-name="Path 16" class="cls-1" d="M265,22.538h-6.2V21.96c.909-.083,2.148-.248,2.4-.909v-9.83c-.165-.413-1.074-.661-1.982-.661V9.983c2.561,0,4.3-.083,5.865-.083,2.891,0,4.378,1.156,4.378,2.643,0,1.239-.578,2.065-2.313,2.808,1.9.5,2.974,1.735,2.974,3.139C270.116,21.216,268.217,22.538,265,22.538Zm-.578-11.895h-.991V15.1a9.485,9.485,0,0,1,1.487-.083c.413,0,.909.083,1.239.083a2.828,2.828,0,0,0,.991-2.23C267.143,11.635,266.069,10.643,264.417,10.643Zm0,5.2h-.909v5.121c.248.578.743.826,1.652.826,1.817,0,2.726-1.4,2.726-3.221C267.8,16.839,266.069,15.847,264.417,15.847Z" transform="translate(-101.196 -9.735)"/>
      <path id="Path_17" data-name="Path 17" class="cls-1" d="M288.59,22.621h-2.065c-1.9,0-2.065.165-3.221-1.322-1.4-1.817-2.065-2.891-2.726-3.8H278.6v3.469c.248.661,1.239.991,2.148.991v.578H274.3V21.96c.909-.083,1.817-.248,2.065-.909V11.3c-.165-.5-1.156-.661-2.065-.743V9.983c2.148,0,3.552-.083,5.865-.083,3.221,0,4.708,1.074,4.708,3.3a4.076,4.076,0,0,1-2.478,3.3l2.726,3.634a5,5,0,0,0,1.487,1.4,6.016,6.016,0,0,0,1.982.578Zm-8.756-11.895H278.6v5.947H280c1.9,0,2.478-1.322,2.478-3.387A2.407,2.407,0,0,0,279.834,10.726Z" transform="translate(-103.893 -9.735)"/>
      <path id="Path_18" data-name="Path 18" class="cls-1" d="M306.46,22.538h-6.03V21.96c.909-.083,1.652-.248,1.9-.661l-1.322-3.717H296.96l-1.239,3.469c.165.5.991.826,1.9.909v.578H292.5V21.96c.909-.083,1.569-.165,1.9-.661.578-1.322,1.156-2.891,1.735-4.46.826-2.23,1.652-4.378,2.148-5.7A10.821,10.821,0,0,0,298.53,9.9h2.4a6.959,6.959,0,0,0,.248,1.487c.661,2.065,1.239,3.717,1.817,5.369.5,1.4.991,2.726,1.569,4.378.165.578.991.826,1.9.826v.578Zm-5.782-5.865-1.322-4.047-.248-.991h-.083l-.248.991-1.4,4.047Z" transform="translate(-107.059 -9.735)"/>
      <path id="Path_19" data-name="Path 19" class="cls-1" d="M325.19,22.621h-2.065c-1.9,0-2.065.165-3.221-1.322-1.4-1.817-2.065-2.891-2.726-3.8H315.2v3.469c.248.661,1.239.991,2.148.991v.578H310.9V21.96c.909-.083,1.817-.248,2.065-.909V11.3c-.165-.5-1.156-.661-2.065-.743V9.983c2.148,0,3.552-.083,5.865-.083,3.221,0,4.708,1.074,4.708,3.3a4.076,4.076,0,0,1-2.478,3.3l2.726,3.634a5,5,0,0,0,1.487,1.4,6.016,6.016,0,0,0,1.982.578Zm-8.673-11.895h-1.239v5.947h1.4c1.9,0,2.478-1.322,2.478-3.387A2.407,2.407,0,0,0,316.517,10.726Z" transform="translate(-110.261 -9.735)"/>
      <path id="Path_20" data-name="Path 20" class="cls-1" d="M340.4,10.578a2.8,2.8,0,0,0-2.313,1.487l-3.221,5.287v3.634c.413.909,1.4.991,2.313,1.074v.578h-6.856V22.06c.909-.083,2.065-.165,2.313-.743V17.434L329.413,11.9a2.48,2.48,0,0,0-2.313-1.322V10h6.03v.578a2.836,2.836,0,0,0-1.735.5l2.891,5.2,2.891-5.039a2.586,2.586,0,0,0-1.652-.661V10h4.708v.578Z" transform="translate(-113.079 -9.752)"/>
      <path id="Path_21" data-name="Path 21" class="cls-1" d="M74.939,53.647H68l.083-.5a2.672,2.672,0,0,0,2.065-.743L72.46,41.587c-.083-.413-1.156-.743-2.148-.743l.083-.5c2.478-.083,4.13-.248,5.947-.248,4.3,0,6.608,2.23,6.608,5.534A7.631,7.631,0,0,1,74.939,53.647Zm.5-12.8h-.909L72.047,52.325c.165.33,1.817.661,2.643.661,4.213,0,6.2-3.139,6.2-6.939C80.968,42.743,78.9,40.843,75.434,40.843Z" transform="translate(-68 -14.989)"/>
      <path id="Path_22" data-name="Path 22" class="cls-1" d="M92.391,51.229C91.152,52.716,90.078,53.79,89,53.79c-.5,0-.661-.661-.661-1.4a8.867,8.867,0,0,1,.33-1.735l.909-3.8c.083-.5.248-1.156.248-1.239s.083-.248-.083-.248c-.248,0-.909.578-1.735,1.735l-.413-.248c1.156-1.652,2.065-2.478,3.056-2.478.5,0,.661.578.661,1.239a2.287,2.287,0,0,1-.083.743L90,51.229a2.053,2.053,0,0,0-.083.661c0,.33.083.661.33.661s.909-.661,1.735-1.652ZM91.4,41.565a1.025,1.025,0,0,1-1.074-.991,1.074,1.074,0,1,1,2.148,0A1.025,1.025,0,0,1,91.4,41.565Z" transform="translate(-71.41 -14.885)"/>
      <path id="Path_23" data-name="Path 23" class="cls-1" d="M102.9,45.9l-.248.826h-2.148a4.454,4.454,0,0,1,.413,1.322,3.939,3.939,0,0,1-2.4,3.634c-1.156.661-1.9.909-1.9,1.487,0,.5.33.909,1.322,1.4l1.156.578c1.156.578,1.569,1.156,1.569,2.065,0,1.156-1.735,2.726-4.874,2.726-2.808,0-3.8-1.239-3.8-1.9,0-1.074.991-1.735,3.8-2.891a1.723,1.723,0,0,1-.5-1.239c0-.248.578-.826,1.074-1.322A2.922,2.922,0,0,1,94.4,49.7a4.239,4.239,0,0,1,1.652-3.056A4.542,4.542,0,0,1,98.939,45.4a1.757,1.757,0,0,1,1.239.578H102.9ZM98.113,56.469l-2.065-1.156c-1.817.826-2.561,1.817-2.561,2.643,0,.578.826,1.487,2.478,1.487,1.9,0,3.221-1.156,3.221-1.735C99.269,57.129,98.939,57.047,98.113,56.469Zm-.165-10.49c-.826,0-2.148,1.652-2.148,3.717,0,1.156.578,1.982,1.322,1.982.991,0,2.23-1.735,2.23-3.717C99.352,46.8,98.691,45.978,97.947,45.978Z" transform="translate(-72.176 -15.911)"/>
      <path id="Path_24" data-name="Path 24" class="cls-1" d="M110.091,51.229c-1.239,1.487-2.313,2.561-3.387,2.561-.5,0-.661-.661-.661-1.4a8.866,8.866,0,0,1,.33-1.735l.909-3.8c.083-.5.248-1.156.248-1.239s.083-.248-.083-.248c-.248,0-.909.578-1.735,1.735l-.413-.248c1.156-1.652,2.065-2.478,3.056-2.478.5,0,.661.578.661,1.239a2.287,2.287,0,0,1-.083.743L107.7,51.229a2.053,2.053,0,0,0-.083.661c0,.33.083.661.33.661s.909-.661,1.735-1.652Zm-.991-9.664a1.025,1.025,0,0,1-1.074-.991,1.074,1.074,0,0,1,2.148,0A1.025,1.025,0,0,1,109.1,41.565Z" transform="translate(-74.49 -14.885)"/>
      <path id="Path_25" data-name="Path 25" class="cls-1" d="M117.886,45.33l-.248.909h-2.23l-1.074,5.534a3.1,3.1,0,0,0-.083.826c0,.413.165.661.33.661a6.929,6.929,0,0,0,2.065-1.9l.413.33c-1.322,1.652-2.561,2.726-3.634,2.726-.5,0-.743-.661-.743-1.4a6.677,6.677,0,0,1,.248-1.652l.991-5.2-1.322.083.083-.413a5.768,5.768,0,0,0,3.056-2.726h.5l-.661,2.23Z" transform="translate(-75.76 -15.511)"/>
      <path id="Path_26" data-name="Path 26" class="cls-1" d="M128.3,52.273c-1.239,1.487-2.313,2.561-3.387,2.561-.5,0-.661-.661-.661-1.4l.578-2.4c-1.735,2.065-3.387,3.8-4.543,3.8-.33,0-.991-.578-.991-2.23a6.7,6.7,0,0,1,1.817-4.626,8.023,8.023,0,0,1,5.7-2.478h.661l-1.487,6.856a2.548,2.548,0,0,0-.083.743c0,.248,0,.5.248.5s.991-.743,1.817-1.652ZM125.578,46.9a2.81,2.81,0,0,0-.826-.083,4.307,4.307,0,0,0-2.065.413,5.839,5.839,0,0,0-1.817,4.708c0,1.239.33,1.569.578,1.569.413,0,1.982-1.569,3.469-3.469Z" transform="translate(-76.925 -15.929)"/>
      <path id="Path_27" data-name="Path 27" class="cls-1" d="M135.73,38.583,133.252,50.89a2.81,2.81,0,0,0-.083.826c0,.33.083.578.33.578s.991-.743,1.735-1.652l.413.33c-1.239,1.487-2.4,2.561-3.469,2.561-.5,0-.578-.661-.578-1.4a16.179,16.179,0,0,1,.248-1.652l1.9-9.334a6.918,6.918,0,0,0,.165-.826c0-.413-.165-.578-.743-.578-.165,0-.5.083-.743.083l.083-.5,3.056-.826h.165Z" transform="translate(-79.065 -14.711)"/>
      <path id="Path_28" data-name="Path 28" class="cls-1" d="M159.842,40.5l-.083.5a2.78,2.78,0,0,0-1.982.743L155.464,52.56c.083.413.991.661,1.9.743l-.083.5H151.5l.083-.5a2.469,2.469,0,0,0,1.982-.743l1.074-5.039h-7.6l-1.074,5.039c.083.413.991.661,1.9.743l-.083.5H142l.083-.5a2.469,2.469,0,0,0,1.982-.743l2.313-10.821c-.083-.413-.991-.743-1.9-.743l.083-.5h5.782l-.083.5c-.991.083-1.735.33-1.982.743l-.991,4.791h7.6l.991-4.791c-.165-.413-.991-.743-1.9-.743l.083-.5Z" transform="translate(-80.875 -15.059)"/>
      <path id="Path_29" data-name="Path 29" class="cls-1" d="M172.447,52.291c-1.239,1.487-2.313,2.561-3.387,2.561-.5,0-.661-.661-.661-1.4a28.381,28.381,0,0,1,.661-2.974c-1.817,2.4-3.8,4.378-4.874,4.378-.33,0-.909-.826-.909-1.4a8.925,8.925,0,0,1,.33-1.569l.991-3.8c.083-.413.33-1.156.33-1.239s.083-.248-.083-.248c-.248,0-.909.578-1.735,1.735l-.413-.248c1.156-1.652,2.065-2.478,3.056-2.478.5,0,.661.578.661,1.239,0,.248-.083.413-.083.661-.578,2.23-1.156,4.626-1.322,5.452,0,.578.165.826.33.826.413,0,2.23-1.9,3.882-3.965l.826-3.882h1.569l-1.487,6.691a2.548,2.548,0,0,0-.083.743c0,.33.083.578.248.578a6.649,6.649,0,0,0,1.735-1.652Z" transform="translate(-84.476 -15.946)"/>
      <path id="Path_30" data-name="Path 30" class="cls-1" d="M190,52.256c-1.239,1.487-2.313,2.561-3.387,2.561-.5,0-.578-.661-.578-1.4a8.241,8.241,0,0,1,.33-1.652s.909-3.387.991-4.3c0-.661-.165-.743-.33-.743-.413,0-2.148,1.817-3.717,3.882l-.909,4.047h-1.487s1.4-6.278,1.569-7.1c0-.661-.165-.743-.33-.743-.413,0-2.148,1.817-3.8,3.882l-.826,4.047h-1.652l1.4-6.773c.083-.33.248-1.156.248-1.239s.083-.248-.083-.248c-.248,0-.909.578-1.735,1.735l-.413-.248c1.156-1.652,2.065-2.478,2.974-2.478.5,0,.661.578.661,1.239,0,.248-.083.5-.083.743l-.5,2.23c1.817-2.23,3.634-4.213,4.708-4.213.33,0,.909.826.909,1.4a8.925,8.925,0,0,1-.33,1.569l-.33,1.156c1.817-2.23,3.552-4.213,4.708-4.213.33,0,.909.826.909,1.4a4.8,4.8,0,0,1-.33,1.569l-.991,3.8a3.065,3.065,0,0,0-.165.743c0,.413.083.578.248.578.248,0,.991-.743,1.735-1.652Z" transform="translate(-86.668 -15.911)"/>
      <path id="Path_31" data-name="Path 31" class="cls-1" d="M203.4,52.273c-1.239,1.487-2.313,2.561-3.387,2.561-.5,0-.661-.661-.661-1.4l.578-2.4c-1.735,2.065-3.387,3.8-4.543,3.8-.33,0-.991-.578-.991-2.23a6.7,6.7,0,0,1,1.817-4.626,8.023,8.023,0,0,1,5.7-2.478h.661l-1.487,6.856a2.548,2.548,0,0,0-.083.743c0,.248,0,.5.248.5s.991-.743,1.817-1.652ZM200.678,46.9a2.81,2.81,0,0,0-.826-.083,4.307,4.307,0,0,0-2.065.413,5.838,5.838,0,0,0-1.817,4.708c0,1.239.33,1.569.578,1.569.413,0,1.982-1.569,3.469-3.469Z" transform="translate(-89.991 -15.929)"/>
      <path id="Path_32" data-name="Path 32" class="cls-1" d="M215.864,52.256c-1.239,1.487-2.313,2.561-3.387,2.561-.5,0-.578-.661-.578-1.4a8.241,8.241,0,0,1,.33-1.652s.909-3.552,1.074-4.378c0-.578,0-.661-.33-.661-.413,0-2.313,1.9-3.882,3.965l-.743,3.965h-1.569l1.4-6.773c.083-.33.248-1.156.248-1.239s0-.248-.083-.248c-.248,0-.909.578-1.735,1.735l-.413-.248c1.156-1.652,2.065-2.478,2.974-2.478.5,0,.661.578.661,1.239,0,.248-.083.5-.083.743l-.578,2.313c1.817-2.23,3.717-4.3,4.873-4.3.33,0,.826.826.826,1.4a4.8,4.8,0,0,1-.33,1.569l-.991,3.8a3.635,3.635,0,0,0-.165.826c0,.33,0,.5.248.5s.991-.743,1.735-1.652Z" transform="translate(-92.044 -15.911)"/>
      <path id="Path_33" data-name="Path 33" class="cls-1" d="M223.691,51.229c-1.239,1.487-2.313,2.561-3.387,2.561-.5,0-.661-.661-.661-1.4a8.866,8.866,0,0,1,.33-1.735l.909-3.8c.083-.5.248-1.156.248-1.239s.083-.248-.083-.248c-.248,0-.909.578-1.735,1.735l-.413-.248c1.156-1.652,2.065-2.478,3.056-2.478.5,0,.661.578.661,1.239a2.287,2.287,0,0,1-.083.743L221.3,51.229a2.053,2.053,0,0,0-.083.661c0,.33.083.661.33.661s.909-.661,1.735-1.652Zm-.991-9.664a1.025,1.025,0,0,1-1.074-.991,1.074,1.074,0,1,1,2.148,0A1.025,1.025,0,0,1,222.7,41.565Z" transform="translate(-94.254 -14.885)"/>
      <path id="Path_34" data-name="Path 34" class="cls-1" d="M231.486,45.33l-.248.909h-2.23l-1.074,5.534a3.1,3.1,0,0,0-.083.826c0,.413.165.661.33.661a6.93,6.93,0,0,0,2.065-1.9l.413.33c-1.322,1.652-2.561,2.726-3.634,2.726-.5,0-.743-.661-.743-1.4a6.676,6.676,0,0,1,.248-1.652l.991-5.2-1.322.083.083-.413a5.768,5.768,0,0,0,3.056-2.726h.5l-.661,2.23Z" transform="translate(-95.524 -15.511)"/>
      <path id="Path_35" data-name="Path 35" class="cls-1" d="M237.591,51.229c-1.239,1.487-2.313,2.561-3.387,2.561-.5,0-.661-.661-.661-1.4a8.868,8.868,0,0,1,.33-1.735l.909-3.8c.083-.5.248-1.156.248-1.239s0-.248-.083-.248c-.248,0-.909.578-1.735,1.735l-.413-.248c1.156-1.652,2.065-2.478,3.056-2.478.5,0,.661.578.661,1.239a2.287,2.287,0,0,1-.083.743L235.2,51.229a2.053,2.053,0,0,0-.083.661c0,.33.083.661.33.661s.909-.661,1.735-1.652Zm-.991-9.664a1.025,1.025,0,0,1-1.074-.991,1.074,1.074,0,1,1,2.148,0A1.025,1.025,0,0,1,236.6,41.565Z" transform="translate(-96.672 -14.885)"/>
      <path id="Path_36" data-name="Path 36" class="cls-1" d="M241.635,50.421c0,.248-.083.578-.083.826,0,1.487.578,2.4,1.487,2.4.661,0,1.569-.661,2.561-1.735l.33.33c-1.322,1.652-2.808,2.478-3.882,2.478-1.322,0-2.148-1.322-2.148-3.221a7.086,7.086,0,0,1,1.735-4.378,4.343,4.343,0,0,1,3.139-1.817,1.58,1.58,0,0,1,1.735,1.652C246.508,48.191,244.939,49.513,241.635,50.421Zm1.9-4.213a6.063,6.063,0,0,0-1.9,3.634,7.953,7.953,0,0,0,3.3-1.735,3.576,3.576,0,0,0,.083-.413C245.021,46.952,244.856,46.209,243.534,46.209Z" transform="translate(-97.908 -15.894)"/>
      <path id="Path_37" data-name="Path 37" class="cls-1" d="M253.834,47.63a2.862,2.862,0,0,0-1.982-1.239h-.165a1.888,1.888,0,0,0-.5,1.156,1.945,1.945,0,0,0,.413,1.074c.5.578,1.074,1.074,1.487,1.569a2.452,2.452,0,0,1,.826,1.569,3.4,3.4,0,0,1-3.552,2.974,1.936,1.936,0,0,1-2.065-1.4c0-.33.661-.826.991-.991a2.907,2.907,0,0,0,2.478,1.487.745.745,0,0,0,.413-.083,1.615,1.615,0,0,0,.661-1.074c0-.661-.826-1.322-1.569-2.065-.743-.826-1.322-1.4-1.322-2.148,0-1.322,1.817-3.056,3.3-3.056,1.156,0,1.817.661,1.817,1.156A5.278,5.278,0,0,1,253.834,47.63Z" transform="translate(-99.369 -15.911)"/>
      <path id="Path_38" data-name="Path 38" class="cls-1" d="M272.847,49.717l-.826,3.965H261.2l.083-.5a2.873,2.873,0,0,0,2.478-.991l2.23-10.656c-.083-.413-.991-.661-1.982-.743l.083-.5h6.03l-.083.5a3.532,3.532,0,0,0-2.23.743l-2.4,11.151,3.8-.083a3.487,3.487,0,0,0,3.056-2.974h.578Z" transform="translate(-101.614 -15.024)"/>
      <path id="Path_39" data-name="Path 39" class="cls-1" d="M285.6,52.273c-1.239,1.487-2.313,2.561-3.387,2.561-.5,0-.661-.661-.661-1.4l.578-2.4c-1.735,2.065-3.387,3.8-4.543,3.8-.33,0-.991-.578-.991-2.23a6.7,6.7,0,0,1,1.817-4.626,8.022,8.022,0,0,1,5.7-2.478h.661l-1.487,6.856a2.548,2.548,0,0,0-.083.743c0,.248,0,.5.248.5s.991-.743,1.817-1.652ZM282.96,46.9a2.81,2.81,0,0,0-.826-.083,4.307,4.307,0,0,0-2.065.413,5.838,5.838,0,0,0-1.817,4.708c0,1.239.33,1.569.578,1.569.413,0,1.982-1.569,3.469-3.469Z" transform="translate(-104.293 -15.929)"/>
      <path id="Path_40" data-name="Path 40" class="cls-1" d="M295.226,51.238c-1.239,1.569-2.561,2.4-3.8,2.4a3.675,3.675,0,0,1-2.726-1.239l2.313-11.151a6.916,6.916,0,0,0,.165-.826c0-.413-.165-.578-.743-.578-.165,0-.5.083-.743.083l.083-.5,3.056-.826h.33l-1.817,8.921c1.9-2.148,3.469-3.3,4.047-3.3s1.4,1.4,1.4,3.3A6.391,6.391,0,0,1,295.226,51.238Zm-1.074-5.7c-.33,0-1.487,1.074-3.139,2.891l-.661,3.387a3.957,3.957,0,0,0,2.643.826,7.025,7.025,0,0,0,2.065-5.287C295.06,46.117,294.647,45.539,294.152,45.539Z" transform="translate(-106.398 -14.728)"/>
      <path id="Path_41" data-name="Path 41" class="cls-1" d="M305.93,52.421c-1.4,1.735-2.891,2.4-3.634,2.4-1.156,0-2.4-1.322-2.4-3.634a5.715,5.715,0,0,1,1.239-3.387,6.039,6.039,0,0,1,3.634-2.4c1.156,0,2.4,1.322,2.4,3.634A5.715,5.715,0,0,1,305.93,52.421Zm-1.982-6.113c-.909,0-2.478,1.817-2.478,4.708,0,1.982.743,2.974,1.569,2.974.909,0,2.478-1.9,2.478-4.791C305.517,47.3,304.773,46.309,303.947,46.309Z" transform="translate(-108.347 -15.911)"/>
      <path id="Path_42" data-name="Path 42" class="cls-1" d="M316.691,47.53h-.248a1.781,1.781,0,0,0-1.322-.5c-.578,0-1.9,2.23-1.982,2.891l-.909,4.626h-1.569l1.322-6.773a10.358,10.358,0,0,0,.165-1.239c0-.083,0-.248-.083-.248-.248,0-.826.578-1.652,1.735L310,47.778c1.156-1.652,1.982-2.478,2.974-2.478.5,0,.661.578.661,1.239,0,.248-.083.5-.083.743l-.165,1.074A6.789,6.789,0,0,1,316.36,45.3a2.879,2.879,0,0,1,1.4.5Z" transform="translate(-110.104 -15.894)"/>
      <path id="Path_43" data-name="Path 43" class="cls-1" d="M327.6,52.273c-1.239,1.487-2.313,2.561-3.387,2.561-.5,0-.661-.661-.661-1.4l.578-2.4c-1.735,2.065-3.387,3.8-4.543,3.8-.33,0-.991-.578-.991-2.23a6.7,6.7,0,0,1,1.817-4.626,8.023,8.023,0,0,1,5.7-2.478h.661l-1.487,6.856a2.547,2.547,0,0,0-.083.743c0,.248,0,.5.248.5s.991-.743,1.817-1.652ZM324.878,46.9a2.811,2.811,0,0,0-.826-.083,4.307,4.307,0,0,0-2.065.413,5.838,5.838,0,0,0-1.817,4.708c0,1.239.33,1.569.578,1.569.413,0,1.982-1.569,3.469-3.469Z" transform="translate(-111.6 -15.929)"/>
      <path id="Path_44" data-name="Path 44" class="cls-1" d="M336.087,45.33l-.248.909h-2.23l-1.074,5.534a3.1,3.1,0,0,0-.083.826c0,.413.165.661.33.661a6.929,6.929,0,0,0,2.065-1.9l.413.33c-1.322,1.652-2.561,2.726-3.634,2.726-.5,0-.743-.661-.743-1.4a6.674,6.674,0,0,1,.248-1.652l.991-5.2-1.322.083.083-.413a5.768,5.768,0,0,0,3.056-2.726h.5l-.661,2.23Z" transform="translate(-113.723 -15.511)"/>
      <path id="Path_45" data-name="Path 45" class="cls-1" d="M343.63,52.421c-1.4,1.735-2.891,2.4-3.634,2.4-1.156,0-2.4-1.322-2.4-3.634a5.715,5.715,0,0,1,1.239-3.387,6.04,6.04,0,0,1,3.634-2.4c1.156,0,2.4,1.322,2.4,3.634A5.715,5.715,0,0,1,343.63,52.421Zm-1.982-6.113c-.909,0-2.478,1.817-2.478,4.708,0,1.982.743,2.974,1.569,2.974.909,0,2.478-1.9,2.478-4.791C343.3,47.3,342.473,46.309,341.647,46.309Z" transform="translate(-114.906 -15.911)"/>
      <path id="Path_46" data-name="Path 46" class="cls-1" d="M354.391,47.53h-.248a1.78,1.78,0,0,0-1.322-.5c-.578,0-1.9,2.23-1.982,2.891l-.909,4.626h-1.569l1.322-6.773a10.358,10.358,0,0,0,.165-1.239c0-.083,0-.248-.083-.248-.248,0-.826.578-1.652,1.735l-.413-.248c1.156-1.652,1.982-2.478,2.974-2.478.5,0,.661.578.661,1.239,0,.248-.083.5-.083.743l-.165,1.074A6.789,6.789,0,0,1,354.06,45.3a2.879,2.879,0,0,1,1.4.5Z" transform="translate(-116.663 -15.894)"/>
      <path id="Path_47" data-name="Path 47" class="cls-1" d="M364.482,48.026c-.5,1.239-1.569,3.717-2.561,5.7-1.652,3.3-3.8,6.2-6.113,6.2a.867.867,0,0,1-.909-.909,1.367,1.367,0,0,1,.826-1.074,3.193,3.193,0,0,0,1.817.5c.5-.165,1.817-.991,2.974-3.634a18.036,18.036,0,0,0-1.322-7.682c-.165-.33-.33-.578-.743-.578-.248,0-1.074.33-1.074,1.735v.248h-.5v-.5a2.382,2.382,0,0,1,2.065-2.643,1.464,1.464,0,0,1,1.4.743,14.959,14.959,0,0,1,1.4,6.691,15.44,15.44,0,0,0,1.652-6.443c.083-.909.413-1.074.743-1.074.578,0,.743.248.743.661A2.842,2.842,0,0,1,364.482,48.026Z" transform="translate(-117.916 -15.894)"/>
    </g>
  </g>
</svg>
