<?xml version="1.0" encoding="utf-8"?>
<svg version="1.1" xmlns="http://www.w3.org/2000/svg" xmlns:xlink="http://www.w3.org/1999/xlink" x="0px" y="0px"
	 viewBox="0 0 216 65" xml:space="preserve">
<style type="text/css">
	.st0{fill:#FFFFFF;}
</style>
	<path class="st0" d="M65.4,15.3L54.6,0.1v64h10.8v-24h10.7l6.4-9.4v-0.1H65.4V15.3z M23.7,1.4l-6.4,9.1h0L6.6,25.8v24.7
		c0,1.5-0.6,2.8-2,3.8c-1.3,1-2.8,1.5-4.4,1.5l6,8.7c3.2-0.4,5.8-1.9,8-4.5c1.2-1.5,2.1-3.1,2.6-4.9l6.3,8.9c1.3,0.3,3,0.5,5,0.5
		c4.7,0,8.7-1.7,12.1-5c3.4-3.3,5.1-7.2,5.1-11.6V25.6c0-6.3-2.1-11.7-6.4-16.4C34.7,4.6,29.6,2,23.7,1.4z M34.5,46.6
		c0,2.2-0.9,4.1-2.7,5.8c-1.8,1.7-4,2.6-6.5,2.6h-8.5c0.4-1.3,0.6-2.6,0.6-4V10.5h2.5c4,0,7.5,1.4,10.3,4.3
		c2.9,2.9,4.3,6.3,4.3,10.4V46.6z M82.5,64.1h10.8V15.5L82.5,0.1V64.1z M171.8,50.4V33.1c0-3.8-1.4-7-4.1-9.7c-2.7-2.7-6-4-9.8-4
		c-1,0-2.1,0.1-3.2,0.4l-6.5,9.1h3.4c4.5,0,7.4,1.4,8.8,4.3L148,41.8h0.1l-3.3,2.2c-3.5,2.4-5.3,5.5-5.3,9.3c0,3.7,1.4,6.6,4.2,8.6
		c2.2,1.6,5.3,2.4,9.1,2.4c0.6,0,1.3-0.1,2.2-0.4l6.5-9c0.5,1.8,1.5,3.5,2.8,5c2.2,2.5,4.8,4,7.9,4.4l6.2-8.7
		c-1.7,0-3.2-0.4-4.4-1.3C172.5,53.3,171.8,52,171.8,50.4z M156.6,54.6c-2.3,0-4.3-0.7-5.9-2.3c-1.7-1.6-2.5-3.5-2.5-5.7v-4.8H161
		v9.8c0,1,0.1,2,0.4,3H156.6z M211.4,23.6c-2.9-2.8-6.3-4.2-10.3-4.2c-0.9,0-1.7,0.1-2.5,0.3l-6.4,9V15.5L181.4,0.1V50
		c0,3.9,1.5,7.3,4.3,10.2c2.9,2.9,6.3,4.3,10.2,4.3c0.7,0,1.6-0.1,2.7-0.3l6.3-9.2v0.1l10.8-15.3v-5.9
		C215.7,29.9,214.3,26.5,211.4,23.6z M204.9,54.9h-4.3c-2.3,0-4.3-0.8-5.9-2.4c-1.7-1.6-2.5-3.5-2.5-5.8V29h4.3
		c2.3,0,4.3,0.8,5.9,2.4c1.7,1.7,2.5,3.6,2.5,5.9V54.9z M113.5,15.5L102.7,0.1v64h27.2l6.4-9.1h-22.8V15.5z M136.4,55v-0.1V55
		L136.4,55z"/>
</svg>