<?xml version="1.0" encoding="utf-8"?>
<svg version="1.1" id="Layer_1" xmlns="http://www.w3.org/2000/svg" xmlns:xlink="http://www.w3.org/1999/xlink" x="0px" y="0px"
	 viewBox="0 0 179 77.3" style="enable-background:new 0 0 179 77.3;" xml:space="preserve">
<style type="text/css">
	.st0{fill:#FFFFFF;}
</style>
<title>yale_mark</title>
<path class="st0" d="M59.5,16.2L41.3,46.9v20.7c2.1,5,7.4,5.6,12.5,5.9v2.9H18.1v-2.9c5.1-0.2,11.3-1,12.9-4.3V47.8L12.5,16.5
	C9.3,11.2,6.2,9.4,0,8.9V6.1h31v2.9c-5.9,0.3-7.7,1.4-9.4,2.8l17.2,29.8l16.9-29.7c-1.8-1.3-4.1-2.5-9.9-2.9V6.1h26.5v2.9
	C66.4,9.2,62.6,11.2,59.5,16.2z M95.8,77.3c-6,0-8.8-4.1-9.1-7c-3.8,4-8.6,7-13.3,7c-6,0-11-3.6-11-9.9c0-3.1,0.8-6.2,2.3-8.8l22-8
	v-8.2c0-5-2.3-9.7-7.3-9.7c-3,0-5.9,3.6-6.1,9.3l-9.9,1.7v-1.1c3.3-9.9,14.3-13.8,19.6-13.8c10.1,0,13.7,5.3,13.6,13.5l-0.3,23.2
	c-0.1,4.5,2.3,5.6,4.5,5.6c1.8,0,3.5-1.1,5.6-3.2V71C104,73.9,99.6,77.3,95.8,77.3z M73.7,59.3c-0.5,1.9-0.8,3.8-0.8,5.7
	c0,3.3,1.9,6.6,5.5,6.6c3.3,0,5.2-1.1,8.2-3.4l0.1-14.9C83.8,54.7,76.8,57.8,73.7,59.3L73.7,59.3z M107.4,76.3v-2.5
	c5-0.3,6.4-1.4,7.3-3.3V13.3c0-3.8-0.6-5.3-8.2-6V5.1L126.7,0l0.7,1.9l-3.2,4v64.6c1.1,2.2,3.2,3,7.7,3.3v2.5H107.4z M158.4,77.2
	c-11.6,0-20.5-9.2-20.5-22c0-15.7,9.6-26.4,23.2-26.4c10.9,0,17,6.2,17,16v2l-29.8-0.2c-0.3,1.9-0.4,3.8-0.3,5.6
	c0,11.3,7.1,18.7,16.5,18.7c5.6,0,8.5-2,12.9-5.7l1.7,2.5C172.7,73.5,167.5,77.2,158.4,77.2z M159.4,32.3c-5.5,0-9.4,4.4-10.7,11.4
	l19.4-0.2C168.1,37.6,164.5,32.3,159.4,32.3z"/>
</svg>