<?xml version="1.0" encoding="utf-8"?>
<!-- Generator: Adobe Illustrator 22.0.1, SVG Export Plug-In . SVG Version: 6.00 Build 0)  -->
<svg version="1.1" id="Layer_1" xmlns="http://www.w3.org/2000/svg" xmlns:xlink="http://www.w3.org/1999/xlink" x="0px" y="0px"
	 viewBox="0 0 792 612" style="enable-background:new 0 0 792 612;" xml:space="preserve">
<style type="text/css">
	.st0{fill:none;}
	.st2{fill:#FFFFFF;}
</style>
<g>
	<path class="st2" d="M357.9,268.7l-18.2,30.7V320c2.1,5,7.4,5.6,12.5,5.9v2.9h-35.7v-2.9c5.1-0.2,11.3-1,12.9-4.3v-21.3l-18.6-31.4
		c-3.2-5.3-6.3-7.1-12.5-7.5v-2.9h31v2.9c-5.9,0.3-7.7,1.4-9.4,2.8l17.2,29.8l16.9-29.7c-1.8-1.3-4.1-2.5-9.9-2.9v-2.9h26.5v2.9
		C364.7,261.6,361,263.6,357.9,268.7z M394.1,329.8c-6,0-8.8-4.1-9.1-7c-3.8,4-8.6,7-13.3,7c-6,0-11-3.6-11-9.9
		c0-3.1,0.8-6.3,2.3-8.8l22-8v-8.2c0-5-2.3-9.7-7.3-9.7c-3,0-5.9,3.6-6.1,9.3l-9.9,1.7V295c3.3-9.9,14.3-13.8,19.6-13.8
		c10.1,0,13.7,5.3,13.6,13.5l-0.3,23.2c-0.1,4.5,2.3,5.6,4.5,5.6c1.8,0,3.5-1.1,5.6-3.2v3.2C402.3,326.3,398,329.8,394.1,329.8z
		 M372,311.8c-0.4,1.8-0.8,3.3-0.8,5.7c0,3.3,1.9,6.6,5.5,6.6c3.3,0,5.2-1.1,8.2-3.4l0.1-14.9C382.2,307.1,375.1,310.2,372,311.8z
		 M405.7,328.8v-2.5c5-0.3,6.4-1.4,7.3-3.3v-57.2c0-3.8-0.6-5.3-8.2-6v-2.2l20.2-5.1l0.7,1.9l-3.2,4v64.6c1.1,2.2,3.2,3,7.7,3.3v2.5
		H405.7z M456.8,329.7c-11.6,0-20.5-9.2-20.5-22c0-15.7,9.6-26.4,23.2-26.4c10.9,0,17,6.2,17,16v2l-29.8-0.2
		c-0.2,1.2-0.3,3.2-0.3,5.6c0,11.3,7.1,18.7,16.5,18.7c5.6,0,8.5-2,12.9-5.7l1.7,2.5C471,325.9,465.8,329.7,456.8,329.7z
		 M457.8,284.7c-5.5,0-9.4,4.4-10.7,11.4l19.4-0.2C466.5,290,462.8,284.7,457.8,284.7z"/>
</g>
</svg>