<svg xmlns="http://www.w3.org/2000/svg" xmlns:xlink="http://www.w3.org/1999/xlink" viewBox="-8002.56 -12750 13.665 13.665">
  <defs>
    <style>
      .cls-1 {
        fill: #eab755;
      }

      .cls-2 {
        clip-path: url(#clip-path);
      }

      .cls-3 {
        clip-path: url(#clip-path-2);
      }
    </style>
    <clipPath id="clip-path">
      <rect id="Rectangle_1114" data-name="Rectangle 1114" class="cls-1" width="13.665" height="13.665"/>
    </clipPath>
    <clipPath id="clip-path-2">
      <rect id="Rectangle_1115" data-name="Rectangle 1115" width="13.665" height="13.665"/>
    </clipPath>
  </defs>
  <g id="Group_400" data-name="Group 400" transform="translate(-8002.56 -12750)">
    <g id="Group_396" data-name="Group 396" class="cls-2">
      <path id="Path_710" data-name="Path 710" class="cls-1" d="M6.831,1.231c1.824,0,2.039.006,2.761.039a3.728,3.728,0,0,1,1.27.237,2.111,2.111,0,0,1,.785.512,2.149,2.149,0,0,1,.512.785,3.849,3.849,0,0,1,.237,1.27c.033.722.039.937.039,2.761S12.428,8.873,12.4,9.6a3.728,3.728,0,0,1-.237,1.27,2.111,2.111,0,0,1-.512.785,2.149,2.149,0,0,1-.785.512,3.849,3.849,0,0,1-1.27.237c-.722.033-.937.039-2.761.039S4.792,12.431,4.07,12.4a3.728,3.728,0,0,1-1.27-.237,2.111,2.111,0,0,1-.785-.512,2.149,2.149,0,0,1-.512-.785A3.849,3.849,0,0,1,1.267,9.6c-.033-.722-.039-.937-.039-2.761s.006-2.039.039-2.761A3.728,3.728,0,0,1,1.5,2.8a2.111,2.111,0,0,1,.512-.785A2.149,2.149,0,0,1,2.8,1.506,3.849,3.849,0,0,1,4.07,1.27c.722-.033.937-.039,2.761-.039M6.831,0C4.974,0,4.744.009,4.013.042A5.039,5.039,0,0,0,2.354.359a3.333,3.333,0,0,0-1.21.788,3.364,3.364,0,0,0-.785,1.21A5.039,5.039,0,0,0,.042,4.016C.009,4.744,0,4.977,0,6.831S.009,8.918.042,9.649a5.039,5.039,0,0,0,.317,1.659,3.333,3.333,0,0,0,.788,1.21,3.333,3.333,0,0,0,1.21.788,5.039,5.039,0,0,0,1.659.317c.728.033.961.042,2.818.042s2.087-.009,2.818-.042a5.039,5.039,0,0,0,1.659-.317,3.49,3.49,0,0,0,2-2,5.039,5.039,0,0,0,.317-1.659c.033-.728.042-.961.042-2.818s-.009-2.087-.042-2.818a5.039,5.039,0,0,0-.317-1.659,3.333,3.333,0,0,0-.788-1.21,3.333,3.333,0,0,0-1.21-.788A5.039,5.039,0,0,0,9.652.039C8.921.009,8.688,0,6.831,0" transform="translate(0)"/>
    </g>
    <g id="Group_397" data-name="Group 397" class="cls-3">
      <path id="Path_711" data-name="Path 711" class="cls-1" d="M114.507,111a3.508,3.508,0,1,0,3.513,3.507A3.506,3.506,0,0,0,114.507,111m0,5.786a2.276,2.276,0,1,1,2.276-2.276,2.275,2.275,0,0,1-2.276,2.276" transform="translate(-107.676 -107.676)"/>
    </g>
    <g id="Group_398" data-name="Group 398" class="cls-3">
      <path id="Path_712" data-name="Path 712" class="cls-1" d="M324.141,79.821a.821.821,0,1,1-.821-.821.822.822,0,0,1,.821.821" transform="translate(-312.842 -76.634)"/>
    </g>
  </g>
</svg>
