<svg xmlns="http://www.w3.org/2000/svg" viewBox="3083.738 750 40.015 40.015">
  <defs>
    <style>
      .cls-1 {
        fill: #fff;
      }

      .cls-2 {
        fill: #051d38;
      }
    </style>
  </defs>
  <g id="Group_402" data-name="Group 402" transform="translate(2841 -2861)">
    <circle id="Ellipse_67" data-name="Ellipse 67" class="cls-1" cx="20.008" cy="20.008" r="20.008" transform="translate(242.738 3611)"/>
    <path id="Twitter__x28_alt_x29__1_" class="cls-2" d="M21.249,7.333a2.914,2.914,0,0,0,2.544-1.5,4.322,4.322,0,0,1-2.843.3v-.6A5.227,5.227,0,0,0,15.862,1.5c.15,0,.3-.15.6-.15.3-.15,1.646-.3,1.5-.9-.15-.449-1.945.3-2.394.449.449-.15,1.2-.449,1.2-.9a4.638,4.638,0,0,0-1.945.9,1.143,1.143,0,0,0,.3-.748c-1.646,1.2-2.694,3.591-3.591,5.836a5.3,5.3,0,0,0-1.8-1.5A54.746,54.746,0,0,0,3.591,1.8a3.069,3.069,0,0,0,2.1,2.993,6.2,6.2,0,0,0-1.5.15c.15,1.048.9,1.945,2.694,2.394-.9.15-1.347.3-1.646.748a2.987,2.987,0,0,0,2.993,1.5c-1.945.748-.9,2.1.6,1.945A6.327,6.327,0,0,1,0,11.672c5.986,8.23,19.154,4.789,21.1-2.993a3.376,3.376,0,0,0,2.843-1.048A5.175,5.175,0,0,1,21.249,7.333Z" transform="translate(250.519 3623.227)"/>
  </g>
</svg>
