<svg xmlns="http://www.w3.org/2000/svg" viewBox="-5782 102 10.5 16">
  <defs>
    <style>
      .cls-1 {
        fill: #9f9f9f;
      }
    </style>
  </defs>
  <path id="Google_1_" class="cls-1" d="M10.5,0H6.2A5.713,5.713,0,0,0,2.4,1.2,3.545,3.545,0,0,0,1.1,4,3.374,3.374,0,0,0,4.6,7.3h.7A.908.908,0,0,0,5,8a2.246,2.246,0,0,0,.6,1.4,9.746,9.746,0,0,0-4,1A3.168,3.168,0,0,0,0,13c0,1.6,1.5,3,4.5,3,3.6,0,5.5-2,5.5-4A3.414,3.414,0,0,0,8.2,9.1l-.7-.6A1.148,1.148,0,0,1,7,7.6a1.174,1.174,0,0,1,.6-1,3.523,3.523,0,0,0,1.8-3A3.416,3.416,0,0,0,7.9.8H9.2ZM8.6,12.8c0,1.3-1.1,2.3-3.1,2.3-2.2,0-3.7-1.1-3.7-2.6a2.393,2.393,0,0,1,1.8-2.2A7.653,7.653,0,0,1,5.8,10h.5C7.9,11.2,8.6,11.8,8.6,12.8ZM7,6.1a2.529,2.529,0,0,1-1.5.6C3.7,6.7,2.9,4.4,2.9,3a2.518,2.518,0,0,1,.5-1.6A1.91,1.91,0,0,1,4.8.7C6.5.7,7.4,3.1,7.4,4.6A1.9,1.9,0,0,1,7,6.1Z" transform="translate(-5782 102)"/>
</svg>
